<?xml version="1.0" encoding="UTF-8"?> <svg xmlns="http://www.w3.org/2000/svg" xmlns:xlink="http://www.w3.org/1999/xlink" xml:space="preserve" width="1667px" height="833px" version="1.1" style="shape-rendering:geometricPrecision; text-rendering:geometricPrecision; image-rendering:optimizeQuality; fill-rule:evenodd; clip-rule:evenodd" viewBox="0 0 1667 834"> <defs> <style type="text/css"> .fil0 {fill:#ECEBE1;fill-rule:nonzero} </style> </defs> <g id="Layer_x0020_1"> <metadata id="CorelCorpID_0Corel-Layer"></metadata> <path class="fil0" d="M531 286c20,7 39,20 50,31 16,17 25,44 25,77 0,34 -11,64 -31,83 -24,25 -59,37 -103,37l-264 0 0 -312 4 0c60,8 84,32 94,54l130 0c12,0 22,-3 29,-10 9,-8 14,-22 14,-38 0,-14 -6,-26 -14,-34 -7,-6 -19,-12 -38,-12l-219 1 0 -60 0 -25 247 0c43,0 79,12 102,34 18,17 28,45 28,76 0,34 -10,63 -28,81 -7,7 -16,13 -26,17zm-45 133c8,-7 13,-18 13,-33 0,-17 -4,-29 -13,-36 -9,-8 -25,-12 -41,-12l-135 0 0 91 135 0c18,0 32,-3 41,-10zm729 -217l-4 0 0 312 102 0 0 -244 0 -1c-5,-25 -26,-57 -98,-67zm-149 -39l393 0 0 -85 -393 0 0 85zm-130 244l-5 -4 -2 6c-7,19 -34,28 -80,28 -68,0 -85,-17 -93,-33 -3,-6 -5,-18 -5,-25l0 -5 -106 0 0 5c0,8 1,30 6,45 21,66 82,96 198,96 56,0 101,-11 133,-32l3 -1 0 -3c0,-19 -9,-48 -49,-77zm-32 -150c92,18 133,58 133,129 0,5 0,11 -1,16l-2 18c0,0 -2,-9 -7,-16 -14,-21 -74,-48 -174,-64 -2,0 -4,0 -5,-1 -12,-2 -43,-8 -63,-11 -91,-18 -138,-61 -138,-130 0,-80 69,-126 189,-126 98,0 158,31 183,95 6,16 10,32 10,42l0 5 -106 0 0 -5c0,-3 -2,-12 -5,-19 -11,-24 -36,-33 -85,-33 -66,0 -80,17 -80,35 0,27 21,39 92,53 7,2 15,3 23,5 15,3 30,6 36,7z"></path> <path class="fil0" d="M242 757c0,3 -1,4 -3,4l-15 0c-2,0 -2,-1 -2,-4l0 -99c0,-3 -1,-5 -1,-6 -1,-1 -1,-1 -2,-2 0,0 0,0 -1,0 0,0 0,0 0,0l-8 0c-1,0 -2,-1 -2,-4l0 -12c0,-3 1,-4 3,-4l14 0c5,0 9,2 12,6 3,3 5,8 5,13l0 108z"></path> <path class="fil0" d="M305 640c0,2 0,3 -1,5l-14 26c-1,2 -3,2 -4,1l-2 -1c-2,-1 -2,-3 -1,-5l7 -20 -1 -1c-2,-1 -2,-3 -2,-5l0 -10c0,-4 1,-5 3,-5l12 0c2,0 3,1 3,5l0 10zm-25 0c0,1 0,2 0,3 0,0 0,0 0,1 0,0 -1,0 -1,1l-14 26c-2,2 -3,2 -5,1l-1 -1c-2,-1 -2,-3 -1,-5l7 -20 -1 -1c-2,-1 -2,-3 -2,-5l0 -10c0,-4 1,-5 3,-5l12 0c2,0 3,1 3,5l0 10z"></path> <path class="fil0" d="M366 730c-1,3 -2,4 -4,4l-15 0c-2,0 -3,-1 -2,-4l26 -80 -51 0c-2,0 -2,-1 -2,-4l0 -50c0,-1 0,-2 2,-4 1,-1 2,-2 2,-2l23 0c1,0 2,1 2,3l0 8c0,1 0,1 0,1 0,1 0,1 0,1 0,1 -1,2 -2,2l-8 3c0,0 -1,0 -1,1l0 21 44 0c4,0 7,2 10,6 3,5 4,9 2,15l-26 79z"></path> <path class="fil0" d="M486 645c0,1 0,2 -2,3 -1,0 -2,1 -4,2 0,0 0,0 0,0 -1,0 -1,0 -1,0 0,0 -1,0 -1,0 0,0 -1,1 -1,1 -3,1 -4,4 -4,7l0 72c0,3 -1,4 -4,4l-14 0c-1,0 -2,-1 -2,-4l0 -66c0,-3 1,-5 2,-6l10 -6c1,0 1,-1 1,-1 0,-1 -1,-1 -1,-1l-54 0c-1,0 -2,-1 -2,-4l0 -12c0,-3 1,-4 2,-4l73 0c2,0 2,1 2,4l0 11z"></path> <path class="fil0" d="M547 730c0,3 0,4 -2,4l-43 0c-2,0 -2,-1 -2,-4l4 -12c0,-2 1,-3 3,-3l21 0 0 -57c0,-3 -1,-5 -2,-6 0,-1 0,-1 -1,-2 0,0 -1,0 -1,0 0,0 0,0 -1,0l-16 0c-1,0 -2,-1 -2,-4l0 -12c0,-3 1,-4 3,-4l23 0c5,0 9,2 12,6 3,3 4,8 4,13l0 81z"></path> <path class="fil0" d="M700 730c0,3 -1,4 -2,4l-15 0c-2,0 -2,-1 -2,-4l0 -72c0,-3 -1,-5 -2,-6 0,-1 -1,-1 -1,-2 -1,0 -1,0 -1,0 0,0 -1,0 -1,0l-33 0 1 80c0,1 0,2 -1,3 0,1 -1,1 -2,1l-34 0c-2,0 -2,-1 -1,-4l3 -12c0,-2 1,-3 3,-3l12 0 0 -52c0,-3 0,-4 2,-5l9 -6c0,0 0,-1 0,-1 0,-1 0,-1 0,-1l-18 0c-2,0 -3,-1 -3,-4l0 -13c0,0 0,0 1,-1 0,0 0,0 0,-1 1,-1 2,-1 3,-1l65 0c5,0 10,2 13,6 3,4 4,8 4,13l0 81z"></path> <path class="fil0" d="M748 730c0,3 -1,4 -2,4l-15 0c-2,0 -2,-1 -2,-4l0 -72c0,-3 -1,-5 -2,-6 0,-1 0,-1 -1,-2 0,0 -1,0 -1,0 0,0 0,0 -1,0l-5 0c-2,0 -2,-1 -2,-4l0 -12c0,-3 1,-4 3,-4l12 0c5,0 9,2 12,6 3,3 4,8 4,13l0 81z"></path> <path class="fil0" d="M812 730c0,3 0,4 -2,4l-43 0c-2,0 -2,-1 -2,-4l4 -12c0,-2 1,-3 3,-3l21 0 0 -57c0,-3 -1,-5 -1,-6 -1,-1 -1,-1 -2,-2 0,0 -1,0 -1,0 0,0 0,0 -1,0l-15 0c-2,0 -2,-1 -2,-4l0 -12c0,-3 1,-4 3,-4l22 0c5,0 9,2 12,6 3,3 4,8 4,13l0 81z"></path> <path class="fil0" d="M935 686c-1,15 -5,27 -13,36 -8,8 -19,12 -34,12l-47 0c-3,0 -4,0 -4,-2l-5 -98c0,-1 0,-2 1,-3 0,0 0,0 1,-1 0,0 0,0 0,0l15 0c2,0 3,1 3,4l3 68 14 -9c3,-1 4,-3 5,-4 0,-2 1,-5 1,-11l0 -44c0,-3 1,-4 3,-4l13 0c2,0 2,2 2,4l0 44c0,6 0,10 -2,13 -1,3 -5,6 -10,8l-25 14c-1,0 -1,1 -1,1 1,1 1,1 1,1l32 0c9,-1 17,-3 21,-8 4,-5 6,-12 7,-23l0 -50c0,-3 1,-4 3,-4l13 0c2,0 3,2 3,4l0 52z"></path> <path class="fil0" d="M1050 726c-5,6 -13,9 -22,9 -4,0 -7,0 -10,0 -3,0 -5,0 -8,0 -2,0 -4,0 -6,-1 -2,0 -3,0 -5,0 -1,0 -1,-1 -1,-2 0,0 0,0 0,-1 0,0 0,-1 0,-1l3 -14c0,-2 1,-2 3,-2l5 1 5 1c5,0 8,0 11,0 3,0 4,0 6,-1 2,0 4,-1 5,-3 1,-2 2,-4 3,-7 0,-1 0,-3 0,-4 0,-1 0,-2 0,-4 0,-6 -2,-10 -4,-12 -2,-2 -5,-3 -9,-3 -7,0 -14,1 -20,3 0,0 -1,0 -1,0 -1,-1 -2,-1 -3,-2l-1 -1c0,0 -1,0 -1,0 0,-1 -1,-2 -1,-3l0 -57c0,-1 0,-1 1,-1 0,0 0,-1 0,-1l51 0c1,0 1,1 1,2l0 17c0,0 0,0 0,0l-35 0 0 25c3,0 6,-1 9,-1 2,0 5,0 7,0 8,0 14,2 18,7 3,3 5,7 6,12 0,2 0,5 1,8 0,3 0,6 0,10 0,11 -2,19 -8,26z"></path> <path class="fil0" d="M1115 651c0,-5 -1,-8 -4,-10 -1,0 -2,-1 -4,-1 -1,-1 -3,-1 -4,-1l-1 0c-3,0 -6,1 -8,3 -2,2 -3,5 -3,9l0 54c0,4 1,7 3,9 2,1 5,2 9,2l0 0c4,0 7,-1 9,-2 2,-2 3,-5 3,-9l0 -54zm19 50c0,11 -2,20 -7,26 -5,6 -12,9 -21,9l-4 0c-10,0 -18,-3 -23,-8 -5,-6 -8,-15 -8,-27l0 -47c0,-11 3,-19 7,-25 6,-6 14,-9 24,-9l2 0c10,0 18,3 23,8 5,6 7,14 7,26l0 47z"></path> <path class="fil0" d="M1237 730c-1,3 -2,4 -3,4l-16 0c-2,0 -2,-1 -1,-4l26 -80 -51 0c-2,0 -3,-1 -3,-4l0 -50c0,-1 1,-2 2,-4 1,-1 2,-2 3,-2l22 0c2,0 3,1 3,3l0 8c0,1 0,1 0,1 0,1 0,1 -1,1 0,1 0,2 -1,2l-8 3c-1,0 -1,0 -1,1l0 21 43 0c4,0 8,2 11,6 2,5 3,9 1,15l-26 79z"></path> <path class="fil0" d="M1356 692c0,9 -2,16 -6,20 -4,5 -10,9 -20,13l-50 19c-1,0 -1,0 -1,0 -1,0 -1,0 -1,0 0,0 -1,-1 -1,-1 0,0 0,-1 0,-1l0 -14c0,-2 1,-3 3,-4l18 -7 -20 -82c0,-3 0,-5 3,-5l15 0c2,0 3,1 4,4l14 66c1,2 0,3 -1,5l-7 7c-1,1 -1,1 0,2 0,0 0,0 1,0l20 -9c4,-1 6,-2 7,-4 2,-2 2,-4 2,-8l0 -58c0,-3 1,-5 3,-5l14 0c2,0 3,2 3,5l0 57z"></path> <path class="fil0" d="M1459 729c0,4 -1,5 -3,5l-34 0c-2,0 -3,-1 -2,-3l2 -14c0,-2 1,-2 2,-2l16 0 -2 -57c0,-2 0,-4 -1,-6 -1,-1 -2,-2 -4,-2l-22 0c-5,0 -8,1 -8,4l-4 76c-1,3 -2,4 -3,4l-16 0c-1,0 -2,-1 -1,-4l5 -72c0,-3 0,-5 -1,-6 0,-1 0,-1 0,-1 -1,0 -1,-1 -1,-1 0,0 -1,0 -1,0l-6 0c-2,0 -2,-1 -2,-3l0 -13c0,-3 1,-4 3,-4l13 0c3,0 5,1 8,2 2,2 4,5 5,8 0,2 1,2 1,1l10 -8c2,-2 4,-3 6,-3l20 0c6,0 11,2 15,7 3,3 4,9 4,16l1 76z"></path> </g> </svg> 